# xmcd
#
# Track frame offsets: 
#        150
#        12397
#        26153
#        58931
#        70548
#        83238
#        95627
#        107500
#        126922
#        142491
#        155026
#        170881
#        185217
#        192684
#        206871
#        219987
#        232089
#        233720
#        243452
#        253368
#        268511
#        279871
#        291760
#        297045
#        302547
#        307853
#
# Disc length: 4172 seconds
#
# Revision: 0
# Processed by: cddbd v1.5.2PL0 Copyright (c) Steve Scherf et al.
# Submitted via: ExactAudioCopy v0.95b3
#
DISCID=9b104a1a
DTITLE=The Monkees - The Monkees Complete 10 of 28
DYEAR=1900
DGENRE=
TTITLE0=Monkees \\ The Girl I Knew Somewhere (1st version)
TTITLE1=Monkees \\ The Girl I Knew Somewhere (1st version backing trac
TTITLE1=k)
TTITLE2=Monkees \\ The Girl I Knew Somewhere (1st version tracking ses
TTITLE2=sions)
TTITLE3=Monkees \\ The Girl I Knew Somewhere (2nd version)
TTITLE4=Monkees \\ The Girl I Knew Somewhere (2nd version alt mix)
TTITLE5=Monkees \\ The Girl I Knew Somewhere (2nd version backing trac
TTITLE5=k)
TTITLE6=Monkees \\ The Girl I Knew Somewhere (2nd version mono)
TTITLE7=Monkees \\ The Girl I Knew Somewhere (2nd version overdub sess
TTITLE7=ions)
TTITLE8=Monkees \\ The Girl I Knew Somewhere (2nd version tracking ses
TTITLE8=sions)
TTITLE9=Monkees \\ The Story Of Rock and Roll (1st version tracking sess
TTITLE9=ion)
TTITLE10=Monkees \\ The Story Of Rock and Roll (2nd version tracking ses
TTITLE10=sion)
TTITLE11=Monkees \\ Twelve-String Improvisation
TTITLE12=Monkees \\ Two-Part Invention In F-Major
TTITLE13=Monkees \\ Until It's Time For You To Go (demo)
TTITLE14=Monkees \\ Where Has It All Gone (1st version tracking sessio
TTITLE14=n)
TTITLE15=Monkees \\ Where Has It All Gone (2nd version basic track)
TTITLE16=Monkees \\ WQAN Radio Spot 1967
TTITLE17=Monkees \\ You Just May Be The One (alt mix)
TTITLE18=Monkees \\ You Just May Be The One (backing track)
TTITLE19=Monkees \\ You Just May Be The One (tracking sessions)
TTITLE20=Monkees \\ You Told Me (backing track)
TTITLE21=Monkees \\ You Told Me (rough vocal)
TTITLE22=Monkees \\ Zilch (Peter Tork vocal)
TTITLE23=Monkees \\ Zilch (Davy Jones vocal)
TTITLE24=Monkees \\ Zilch (Micky Dolenz vocal)
TTITLE25=Monkees \\ Zilch (Michael Nesmith vocal)
EXTD=
EXTT0=
EXTT1=
EXTT2=
EXTT3=
EXTT4=
EXTT5=
EXTT6=
EXTT7=
EXTT8=
EXTT9=
EXTT10=
EXTT11=
EXTT12=
EXTT13=
EXTT14=
EXTT15=
EXTT16=
EXTT17=
EXTT18=
EXTT19=
EXTT20=
EXTT21=
EXTT22=
EXTT23=
EXTT24=
EXTT25=
PLAYORDER=
